<svg id="Capa_1" enable-background="new 0 0 512 512" height="512" viewBox="0 0 512 512" width="512" xmlns="http://www.w3.org/2000/svg"><path d="m472.125 179.074-13.683-8.55 14.688-23.506c10.714-17.147 5.51-39.696-11.64-50.412-17.146-10.714-39.695-5.509-50.411 11.64-9.323 14.92-152.914 244.722-162.245 259.655-1.75 2.8-2.123 6.069-1.323 9.031l-12.418 29.284c-7.37 5.45-19.855 13.315-26.593 14.313-5.541.822-9.629 5.508-9.721 11.144l-1.068 65.327h-143.627c-3.964 0-7.19-3.226-7.19-7.19v-431.554c0-3.964 3.226-7.19 7.19-7.19h14.938v7.59c0 14.944 12.158 27.102 27.102 27.102s27.102-12.158 27.102-27.102v-7.59h29.469v7.59c0 14.944 12.158 27.102 27.102 27.102s27.102-12.158 27.102-27.102v-7.59h29.469v7.59c0 14.944 12.158 27.102 27.102 27.102s27.102-12.158 27.102-27.102v-7.59h29.469v7.59c0 14.944 12.158 27.102 27.102 27.102s27.102-12.158 27.102-27.102v-7.59h14.938c3.964 0 7.19 3.226 7.19 7.19v34.078c0 4.142 3.358 7.5 7.5 7.5s7.5-3.358 7.5-7.5v-34.078c0-12.235-9.955-22.19-22.19-22.19h-14.938v-8.964c-.002-14.944-12.16-27.102-27.104-27.102s-27.102 12.158-27.102 27.102v8.964h-29.469v-8.964c.001-14.944-12.157-27.102-27.101-27.102s-27.102 12.158-27.102 27.102v8.964h-29.469v-8.964c0-14.944-12.157-27.102-27.101-27.102s-27.102 12.158-27.102 27.102v8.964h-29.469v-8.964c0-14.944-12.158-27.102-27.102-27.102s-27.102 12.158-27.102 27.102v8.964h-14.938c-12.235 0-22.19 9.955-22.19 22.19v431.554c0 12.236 9.955 22.19 22.19 22.19h335.097c12.235 0 22.19-9.954 22.19-22.19v-204.56c0-4.142-3.358-7.5-7.5-7.5s-7.5 3.358-7.5 7.5v204.56c0 3.964-3.226 7.19-7.19 7.19h-147.869l34.202-17.38c5.023-2.554 7.443-8.282 5.752-13.624-2.057-6.492-.461-21.164 1.207-30.175l20.885-24.01c3.007-.582 5.779-2.341 7.527-5.137l14.419-23.077c2.195-3.513 1.126-8.14-2.386-10.334-3.513-2.195-8.14-1.126-10.334 2.386l-12.525 20.045-36.609-22.875 103.64-165.867 36.609 22.875-72.484 116.004c-2.195 3.513-1.126 8.14 2.386 10.334 3.511 2.195 8.139 1.127 10.334-2.386 10.707-17.135 94.676-151.52 106.558-170.535l13.683 8.55c.924.577 1.199 1.786.625 2.707l-41.561 66.513c-2.195 3.513-1.126 8.14 2.386 10.334 3.498 2.186 8.131 1.141 10.334-2.386l41.561-66.513c4.97-7.95 2.556-18.407-5.396-23.375zm-137.086-151.972c0-6.673 5.429-12.102 12.102-12.102s12.102 5.429 12.102 12.102v31.554c0 6.673-5.429 12.102-12.102 12.102s-12.102-5.429-12.102-12.102zm-83.672 0c0-6.673 5.429-12.102 12.102-12.102s12.102 5.429 12.102 12.102v31.554c0 6.673-5.429 12.102-12.102 12.102-6.673 0-12.102-5.429-12.102-12.102zm-83.672 0c0-6.673 5.429-12.102 12.102-12.102s12.102 5.429 12.102 12.102v31.554c0 6.673-5.429 12.102-12.102 12.102s-12.102-5.429-12.102-12.102zm-83.673 0c0-6.673 5.429-12.102 12.102-12.102s12.102 5.429 12.102 12.102v31.554c0 6.673-5.429 12.102-12.102 12.102s-12.102-5.429-12.102-12.102zm141.687 461.001 20.215-32.352c2.195-3.513 1.127-8.14-2.386-10.334-3.512-2.195-8.14-1.126-10.334 2.386l-20.215 32.351.742-45.418c9.752-2.555 21.545-10.243 27.821-14.687l25.656 16.031c-1.243 7.589-2.984 21.56-1.004 31.444zm62.722-81.987-14.393 16.546-23.421-14.635 8.561-20.19zm86.608-211.885 48.761-78.037c6.306-10.094 19.65-13.174 29.743-6.867s13.173 19.649 6.867 29.743l-48.761 78.037z"/><path d="m354.641 129.625c0-4.142-3.358-7.5-7.5-7.5h-251.017c-4.142 0-7.5 3.358-7.5 7.5s3.358 7.5 7.5 7.5h251.017c4.142 0 7.5-3.358 7.5-7.5z"/><path d="m328.933 197.425c0-4.142-3.358-7.5-7.5-7.5h-225.309c-4.142 0-7.5 3.358-7.5 7.5s3.358 7.5 7.5 7.5h225.309c4.143 0 7.5-3.358 7.5-7.5z"/><path d="m286.569 265.225c0-4.142-3.358-7.5-7.5-7.5h-182.945c-4.142 0-7.5 3.358-7.5 7.5s3.358 7.5 7.5 7.5h182.944c4.143 0 7.501-3.358 7.501-7.5z"/><path d="m96.124 325.526c-4.142 0-7.5 3.358-7.5 7.5s3.358 7.5 7.5 7.5h140.58c4.142 0 7.5-3.358 7.5-7.5s-3.358-7.5-7.5-7.5z"/></svg>